<svg xmlns="http://www.w3.org/2000/svg" viewBox="0 0 32 32"><defs><style>.cls-1{fill:#38d430;}.cls-2{fill:none;stroke:#38d430;stroke-miterlimit:10;}</style></defs><title>icon</title><g id="Layer_2" data-name="Layer 2"><path class="cls-1" d="M16,30A14,14,0,1,1,30,16,14,14,0,0,1,16,30ZM16,3.06A12.94,12.94,0,1,0,28.94,16,12.95,12.95,0,0,0,16,3.06Z"/><path class="cls-1" d="M16,26.5A10.52,10.52,0,1,1,26.48,16,10.52,10.52,0,0,1,16,26.5Zm0-20A9.46,9.46,0,1,0,25.42,16,9.47,9.47,0,0,0,16,6.53Z"/><path class="cls-1" d="M15.85,8.55A.53.53,0,0,1,15.32,8V2.53a.53.53,0,1,1,1.06,0V8A.53.53,0,0,1,15.85,8.55Z"/><path class="cls-1" d="M15.85,30a.53.53,0,0,1-.53-.53V23.86a.53.53,0,1,1,1.06,0v5.61A.53.53,0,0,1,15.85,30Z"/><path class="cls-1" d="M29.47,16.47h-5.7a.53.53,0,0,1,0-1.06h5.7a.53.53,0,1,1,0,1.06Z"/><path class="cls-1" d="M7.93,16.47H2.53a.53.53,0,1,1,0-1.06h5.4a.53.53,0,0,1,0,1.06Z"/><circle class="cls-2" cx="15.85" cy="16" r="3.25"/></g></svg>