<svg xmlns="http://www.w3.org/2000/svg" viewBox="0 0 32 32"><defs><style>.cls-1{fill:#44d62c;}.cls-2{fill:none;stroke:#44d62c;stroke-miterlimit:10;}</style></defs><title>icon</title><g id="Layer_2" data-name="Layer 2"><path class="cls-1" d="M18.54,24.4H14.31a2,2,0,0,1-1.88-1.13,2.09,2.09,0,0,1,0-1.89,2,2,0,0,1,1.14-1,2.85,2.85,0,0,1,2.9-2.21,2.83,2.83,0,0,1,2.91,2.24,2.15,2.15,0,0,1,1,.87A2,2,0,0,1,20.59,23,2.11,2.11,0,0,1,18.54,24.4Zm-2-5.27a1.84,1.84,0,0,0-2,1.65v.4l-.4.06a1.14,1.14,0,0,0-.83.58,1.16,1.16,0,0,0,0,1.06,1.12,1.12,0,0,0,1,.59h4.23a1.2,1.2,0,0,0,1.16-.78,1.15,1.15,0,0,0-.11-.91,1.11,1.11,0,0,0-.72-.53l-.37-.08V20.7A1.87,1.87,0,0,0,16.5,19.13Z"/><path class="cls-1" d="M16,30A14,14,0,0,1,6.1,6.1,14,14,0,1,1,16,30ZM16,3.06A12.94,12.94,0,0,0,3.06,16,12.94,12.94,0,0,0,16,28.94,12.94,12.94,0,0,0,16,3.06Z"/><path class="cls-2" d="M8.38,27.29V25.94a.49.49,0,0,1,.48-.48h0A.48.48,0,0,0,9.34,25V21.42a.49.49,0,0,0-.48-.48h0a.48.48,0,0,1-.48-.47V9.8a.48.48,0,0,1,.48-.47H20.27a.44.44,0,0,1,.33.13L24,12.74a.49.49,0,0,1,.15.34V27"/><rect class="cls-1" x="11.27" y="11.48" width="1.31" height="4.23" rx="0.52"/><rect class="cls-1" x="14.29" y="11.48" width="1.31" height="4.23" rx="0.52"/><rect class="cls-1" x="17.39" y="11.48" width="1.31" height="4.23" rx="0.52"/><rect class="cls-1" x="20.36" y="13.2" width="1.31" height="2.49" rx="0.52"/></g></svg>