<svg xmlns="http://www.w3.org/2000/svg" viewBox="0 0 32 32">
  <defs>
    <style>
      .cls-1 {
        fill: #44d62c;
      }
    </style>
  </defs>
  <title>icon</title>
  <g id="Layer_2" data-name="Layer 2">
    <path class="cls-1" d="M16,30A14,14,0,1,1,30,16,14,14,0,0,1,16,30ZM16,3.08A12.95,12.95,0,1,0,28.94,16.04V16A13,13,0,0,0,16,3.08Z"/>
    <path class="cls-1" d="M13.82,25.3c-.08,0-5.72-.31-5.72-6.05a24.156,24.156,0,0,1,.34-4.33,14,14,0,0,0-.15-5.46c-.18-1.26,4-2.65,4.46-2.75H13a.53.53,0,0,1,.53.53v.21h.72V7.22a.53.53,0,0,1,.53-.53h.26c.46.1,4.64,1.49,4.46,2.74h0a14,14,0,0,0-.14,5.46,25.421,25.421,0,0,1,.33,4.33c0,5.74-5.64,6-5.7,6.05ZM9.36,9.44a15.008,15.008,0,0,1,.12,5.64,23.394,23.394,0,0,0-.32,4.17,4.81,4.81,0,0,0,4.615,5l.075,0H14a4.82,4.82,0,0,0,4.661-4.974V19.25a23.394,23.394,0,0,0-.32-4.17,15.008,15.008,0,0,1,.12-5.64,11.2,11.2,0,0,0-3.17-1.58,1,1,0,0,1-1,.64h-.71a1.059,1.059,0,0,1-1-.63A10.992,10.992,0,0,0,9.36,9.44Z"/>
    <path class="cls-1" d="M10.75,21.72c.75,1.47,3.12,1.55,3.12,1.55H14s2.37-.08,3.12-1.55Z"/>
    <path class="cls-1" d="M12.3,9.36c-.77.23-2,.84-2,1.09a9.815,9.815,0,0,1,.18,2.21l.87-.21a3.527,3.527,0,0,1,.92-1.63Z"/>
    <path class="cls-1" d="M15.56,9.36c.77.23,2,.84,2,1.09a9.815,9.815,0,0,0-.18,2.21l-.88-.21a3.443,3.443,0,0,0-.92-1.63Z"/>
    <path class="cls-1" d="M22.51,15.88H20.38a.53.53,0,0,1-.53-.53h0a.53.53,0,0,1,.53-.53h2.13a.53.53,0,0,1,.53.53h0A.53.53,0,0,1,22.51,15.88Z"/>
    <path class="cls-1" d="M24.64,18H20.38a.53.53,0,0,1,0-1.06h4.26a.53.53,0,0,1,0,1.06Z"/>
    <path class="cls-1" d="M26.76,20.14H20.38a.54.54,0,0,1,0-1.07h6.38a.54.54,0,0,1,0,1.07Z"/>
  </g>
</svg>
